<svg width="32" height="32" viewBox="0 0 32 32" fill="none" xmlns="http://www.w3.org/2000/svg">
<rect x="0.5" y="0.5" width="31" height="31" rx="3.5" stroke="white"/>
<path d="M19.5286 11.5285C19.7889 11.2682 20.2111 11.2682 20.4714 11.5285C20.7318 11.7889 20.7318 12.211 20.4714 12.4713L16.9428 15.9999L20.8047 19.8618C21.0651 20.1222 21.0651 20.5443 20.8047 20.8047C20.5444 21.065 20.1223 21.065 19.8619 20.8047L16 16.9427L12.1381 20.8047C11.8777 21.065 11.4556 21.065 11.1953 20.8047C10.9349 20.5443 10.9349 20.1222 11.1953 19.8618L15.0572 15.9999L11.5286 12.4713C11.2682 12.211 11.2682 11.7889 11.5286 11.5285C11.7889 11.2682 12.2111 11.2682 12.4714 11.5285L16 15.0571L19.5286 11.5285Z" fill="white"/>
</svg>
