<svg width="40" height="40" viewBox="0 0 40 40" fill="none" xmlns="http://www.w3.org/2000/svg">
<path d="M36.5794 16.965C36.3599 16.2959 35.7612 15.8222 35.0558 15.7589L25.4334 14.8929L21.6306 6.06694C21.3499 5.41851 20.711 5 19.9999 5C19.2889 5 18.6498 5.41851 18.3708 6.06694L14.568 14.8929L4.94412 15.7589C4.23864 15.8235 3.64125 16.2972 3.4205 16.965C3.20103 17.6341 3.40372 18.368 3.93728 18.8319L11.211 25.1547L9.06634 34.5187C8.90943 35.2072 9.179 35.9192 9.75529 36.3321C10.065 36.5552 10.429 36.6667 10.7942 36.6667C11.108 36.6667 11.4221 36.584 11.7026 36.4176L19.9999 31.4994L28.2958 36.4176C28.9043 36.7781 29.6696 36.7451 30.2446 36.3321C30.8209 35.9192 31.0905 35.2072 30.9335 34.5187L28.7889 25.1547L36.0626 18.8319C36.5959 18.368 36.7989 17.6357 36.5794 16.965Z" fill="#D3D7DA"/>
</svg>
